Coordinates
version=1
nRows=8
nColumns=40
inDegrees=yes

Units are S.I. units (second, meters, Newtons, ...)
Angles are in degrees.

endheader
time	pelvis_tilt	pelvis_list	pelvis_rotation	pelvis_tx	pelvis_ty	pelvis_tz	hip_flexion_r	hip_adduction_r	hip_rotation_r	knee_angle_r	knee_angle_r_beta	ankle_angle_r	subtalar_angle_r	mtp_angle_r	hip_flexion_l	hip_adduction_l	hip_rotation_l	knee_angle_l	knee_angle_l_beta	ankle_angle_l	subtalar_angle_l	mtp_angle_l	lumbar_extension	lumbar_bending	lumbar_rotation	arm_flex_r	arm_add_r	arm_rot_r	elbow_flex_r	pro_sup_r	wrist_flex_r	wrist_dev_r	arm_flex_l	arm_add_l	arm_rot_l	elbow_flex_l	pro_sup_l	wrist_flex_l	wrist_dev_l
      6.11750000	     -3.43942365	     -5.71000643	      2.03389184	      0.90676214	      0.93488174	      0.51739598	      7.18101059	      5.47393626	    -19.25866299	     11.14246194	     11.14246194	     10.30050044	      6.85811712	     -3.69770884	     34.12683835	    -12.63157889	     -1.11812196	     49.69799385	     49.69799385	     10.54462438	    -18.21249645	     14.40415977	     -9.46394688	      7.97735442	      4.70093579	     24.78452541	    -19.03955003	    -12.82472177	     76.47092370	     44.99066468	      0.00000000	      0.00000000	     -6.73935902	     -7.10212264	     -3.49540555	     26.14525563	     45.81036364	      0.00000000	      0.00000000
      6.12985714	     -3.55271563	     -5.70830805	      2.19649813	      0.90567726	      0.93452591	      0.51683348	      6.70057396	      5.50962603	    -19.33888646	     10.83564874	     10.83564874	     10.59176189	      6.98390745	     -3.70191970	     34.26696963	    -12.32683469	     -1.00676908	     45.89237512	     45.89237512	     10.04839015	    -17.91717020	     13.17409792	     -9.51554073	      8.09471677	      4.83873880	     25.21254229	    -19.29533968	    -12.53395478	     80.38104729	     44.87951669	      0.00000000	      0.00000000	     -7.93207562	     -7.06540581	     -2.52756220	     26.40968660	     45.62057750	      0.00000000	      0.00000000
      6.14221429	     -3.66689588	     -5.60114626	      2.33731258	      0.90449912	      0.93412973	      0.51609254	      6.28091175	      5.41938673	    -19.25178562	     10.64179408	     10.64179408	     10.89722080	      6.83247131	     -3.79551656	     34.30354782	    -11.85854293	     -0.87198722	     42.05685829	     42.05685829	     10.04733534	    -17.37339819	     13.39993555	     -9.48209455	      8.03432609	      4.81256580	     26.47839131	    -19.15493390	    -12.60031723	     81.82712636	     44.84524145	      0.00000000	      0.00000000	     -8.83544904	     -6.91957941	     -2.28987388	     26.00504562	     45.56687480	      0.00000000	      0.00000000
      6.15457143	     -3.79168469	     -5.53980565	      2.51308943	      0.90330045	      0.93355394	      0.51522073	      5.86546607	      5.37388628	    -19.19543590	     10.42380275	     10.42380275	     11.18350196	      6.67899399	     -3.92035721	     34.28269947	    -11.39448732	     -0.65552609	     38.22775646	     38.22775646	     10.02469428	    -16.64125944	     13.38913178	     -9.49658595	      8.04024364	      4.58783876	     27.60019663	    -18.84930229	    -12.46781480	     83.93060623	     44.78410355	      0.00000000	      0.00000000	     -9.72159918	     -6.78334129	     -2.02985986	     25.58498847	     45.51059221	      0.00000000	      0.00000000
      6.16692857	     -3.95284865	     -5.57355850	      2.73537945	      0.90206302	      0.93272549	      0.51424830	      5.48459295	      5.43508534	    -19.17075948	     10.17686220	     10.17686220	     11.43800577	      6.47118548	     -4.16338654	     34.30601649	    -11.02247644	     -0.40435174	     34.54839340	     34.54839340	      9.71752731	    -15.68472228	     12.71295768	     -9.50983327	      8.15507566	      4.49985031	     28.36358689	    -18.85122040	    -12.21062798	     87.09342895	     44.69455694	      0.00000000	      0.00000000	    -10.40519354	     -6.63016554	     -1.57168818	     25.19529062	     45.42949751	      0.00000000	      0.00000000
      6.17928571	     -4.16705529	     -5.60080761	      2.95618529	      0.90083964	      0.93173681	      0.51313423	      5.23593981	      5.44660753	    -19.17099429	     10.09839758	     10.09839758	     11.79079217	      6.24875978	     -4.33979223	     34.40344549	    -10.66939422	     -0.27853886	     31.18566761	     31.18566761	      9.82098434	    -14.25876244	     12.93259070	     -9.31438336	      8.24634828	      4.58152278	     29.34469218	    -18.93344343	    -12.23829277	     88.22700870	     44.66710362	      0.00000000	      0.00000000	    -10.92057514	     -6.50141046	     -1.46956034	     24.94406466	     45.40553978	      0.00000000	      0.00000000
      6.19164286	     -4.17651587	     -5.44501400	      3.16439339	      0.89989691	      0.93106516	      0.51195992	      4.70406239	      5.29287611	    -19.00115343	      9.95171445	      9.95171445	     12.17271345	      5.93324681	     -4.54164057	     34.14058545	    -10.18966904	     -0.42269658	     28.01655143	     28.01655143	      9.82638780	    -12.81415394	     13.04323342	     -9.42905976	      8.08064926	      4.29623080	     30.17950814	    -18.46519383	    -11.97073497	     90.53507360	     44.59508490	      0.00000000	      0.00000000	    -11.46781319	     -6.44986218	     -1.29373466	     24.47891452	     45.37249744	      0.00000000	      0.00000000
      6.20400000	     -4.26011622	     -5.54574486	      3.44610814	      0.89897439	      0.93000698	      0.51070068	      4.24228644	      5.44288248	    -18.78731082	      9.72863520	      9.72863520	     12.36294294	      5.29761698	     -5.04024670	     34.16518914	     -9.95097885	     -0.55333615	     25.47134989	     25.47134989	      9.60557712	    -11.40393633	     12.49146035	     -9.48091660	      8.27174816	      4.73858366	     30.02309707	    -18.99411259	    -11.94975362	     94.61532329	     44.50367438	      0.00000000	      0.00000000	    -11.36674831	     -6.41860682	     -0.71437850	     23.75100923	     45.30577339	      0.00000000	      0.00000000
